<svg width="375" height="550" viewBox="0 0 375 550" fill="none" xmlns="http://www.w3.org/2000/svg">
<circle opacity="0.3" cx="186.924" cy="274.923" r="156.833" transform="rotate(32.0912 186.924 274.923)" stroke="url(#paint0_linear_53_590)" stroke-width="4"/>
<circle opacity="0.6" cx="185.133" cy="275.655" r="129.397" transform="rotate(32.0912 185.133 275.655)" stroke="url(#paint1_linear_53_590)" stroke-width="5"/>
<circle opacity="0.7" cx="185.047" cy="275.334" r="101.019" transform="rotate(32.0912 185.047 275.334)" stroke="url(#paint2_linear_53_590)" stroke-width="7"/>
<circle cx="185.07" cy="275.761" r="70.146" transform="rotate(32.0912 185.07 275.761)" fill="url(#paint3_linear_53_590)" stroke="url(#paint4_linear_53_590)" stroke-width="10"/>
<circle cx="299.656" cy="343.06" r="4.07217" transform="rotate(89.0945 299.656 343.06)" fill="#ED5E5E"/>
<circle cx="288.221" cy="368.793" r="4.75087" transform="rotate(89.0945 288.221 368.793)" fill="#AA4343"/>
<circle cx="267.868" cy="383.395" r="2.71478" transform="rotate(89.0945 267.868 383.395)" fill="#491E1E"/>
<circle cx="74.2506" cy="213.877" r="4.07217" transform="rotate(-102.686 74.2506 213.877)" fill="#9C3D3D"/>
<circle cx="81.4039" cy="196.032" r="3.07942" transform="rotate(-102.686 81.4039 196.032)" fill="#6A2B2B"/>
<circle cx="92.3382" cy="183.864" r="2.34113" transform="rotate(-102.686 92.3382 183.864)" fill="#331515"/>
<g filter="url(#filter0_di_53_590)">
<path d="M186.002 314.197C160.462 298.314 145.75 289.825 143.987 274.789C142.593 262.879 151.239 255.595 151.426 255.399C165.136 242.996 180.176 251.388 183.802 254.409C186.456 250.356 198.539 237.536 214.61 244.402C216.95 245.393 224.745 249.419 226.832 259.165C230.41 276.059 213.704 293.146 197.062 312.348C195.662 313.978 193.751 314.959 191.756 315.3C189.803 315.633 187.76 315.287 186.002 314.197Z" fill="url(#paint5_linear_53_590)"/>
</g>
<g filter="url(#filter1_f_53_590)">
<circle cx="165.65" cy="269.309" r="8.16623" transform="rotate(-10.4187 165.65 269.309)" fill="#AA4343"/>
</g>
<g filter="url(#filter2_di_53_590)">
<path d="M197.601 273.425C197.685 275.552 196.371 276.796 195.29 276.839C194.209 276.881 192.801 275.745 192.717 273.618C192.633 271.491 193.947 270.247 195.028 270.204C196.109 270.161 197.517 271.298 197.601 273.425Z" fill="url(#paint6_linear_53_590)" stroke="#FFF8F9" stroke-width="3"/>
<path d="M177.861 276.432C178.456 278.476 177.483 280 176.444 280.303C175.405 280.606 173.765 279.844 173.169 277.8C172.573 275.756 173.547 274.231 174.586 273.928C175.625 273.626 177.265 274.388 177.861 276.432Z" fill="url(#paint7_linear_53_590)" stroke="#FFF8F9" stroke-width="3"/>
<path d="M185.995 297.061C191.164 296.682 195.804 294.245 198.875 290.364C198.666 293.586 196.941 295.962 194.579 297.19C192.232 298.409 189.118 298.56 185.995 297.061Z" fill="url(#paint8_linear_53_590)" stroke="#FFF8F9" stroke-width="3"/>
<path d="M171.634 266.878C172.34 268.458 169.805 271.518 166.731 270.777" stroke="#FFF8F9" stroke-width="3" stroke-linecap="round"/>
<path d="M197.883 263.146C197.178 265.151 193.139 265.881 191.591 262.726" stroke="#FFF8F9" stroke-width="3" stroke-linecap="round"/>
</g>
<defs>
<filter id="filter0_di_53_590" x="137.835" y="236.416" width="99.4851" height="89.0056" filterUnits="userSpaceOnUse" color-interpolation-filters="sRGB">
<feFlood flood-opacity="0" result="BackgroundImageFix"/>
<feColorMatrix in="SourceAlpha" type="matrix" values="0 0 0 0 0 0 0 0 0 0 0 0 0 0 0 0 0 0 127 0" result="hardAlpha"/>
<feOffset dx="2" dy="2"/>
<feGaussianBlur stdDeviation="4"/>
<feColorMatrix type="matrix" values="0 0 0 0 0.952941 0 0 0 0 0.27451 0 0 0 0 0.388235 0 0 0 0.3 0"/>
<feBlend mode="normal" in2="BackgroundImageFix" result="effect1_dropShadow_53_590"/>
<feBlend mode="normal" in="SourceGraphic" in2="effect1_dropShadow_53_590" result="shape"/>
<feColorMatrix in="SourceAlpha" type="matrix" values="0 0 0 0 0 0 0 0 0 0 0 0 0 0 0 0 0 0 127 0" result="hardAlpha"/>
<feOffset dx="-3" dy="-4"/>
<feGaussianBlur stdDeviation="4.5"/>
<feComposite in2="hardAlpha" operator="arithmetic" k2="-1" k3="1"/>
<feColorMatrix type="matrix" values="0 0 0 0 0.286275 0 0 0 0 0.117647 0 0 0 0 0.117647 0 0 0 1 0"/>
<feBlend mode="normal" in2="shape" result="effect2_innerShadow_53_590"/>
</filter>
<filter id="filter1_f_53_590" x="143.319" y="246.978" width="44.662" height="44.6621" filterUnits="userSpaceOnUse" color-interpolation-filters="sRGB">
<feFlood flood-opacity="0" result="BackgroundImageFix"/>
<feBlend mode="normal" in="SourceGraphic" in2="BackgroundImageFix" result="shape"/>
<feGaussianBlur stdDeviation="7.08171" result="effect1_foregroundBlur_53_590"/>
</filter>
<filter id="filter2_di_53_590" x="162.23" y="257.225" width="51.166" height="54.4197" filterUnits="userSpaceOnUse" color-interpolation-filters="sRGB">
<feFlood flood-opacity="0" result="BackgroundImageFix"/>
<feColorMatrix in="SourceAlpha" type="matrix" values="0 0 0 0 0 0 0 0 0 0 0 0 0 0 0 0 0 0 127 0" result="hardAlpha"/>
<feOffset dx="5" dy="4"/>
<feGaussianBlur stdDeviation="4"/>
<feColorMatrix type="matrix" values="0 0 0 0 0.641667 0 0 0 0 0.112292 0 0 0 0 0.179224 0 0 0 1 0"/>
<feBlend mode="normal" in2="BackgroundImageFix" result="effect1_dropShadow_53_590"/>
<feBlend mode="normal" in="SourceGraphic" in2="effect1_dropShadow_53_590" result="shape"/>
<feColorMatrix in="SourceAlpha" type="matrix" values="0 0 0 0 0 0 0 0 0 0 0 0 0 0 0 0 0 0 127 0" result="hardAlpha"/>
<feOffset dx="-1.32609" dy="-2.65217"/>
<feGaussianBlur stdDeviation="1.32609"/>
<feComposite in2="hardAlpha" operator="arithmetic" k2="-1" k3="1"/>
<feColorMatrix type="matrix" values="0 0 0 0 0.708333 0 0 0 0 0.0619792 0 0 0 0 0.108921 0 0 0 0.1 0"/>
<feBlend mode="normal" in2="shape" result="effect2_innerShadow_53_590"/>
</filter>
<linearGradient id="paint0_linear_53_590" x1="186.924" y1="116.091" x2="186.924" y2="433.756" gradientUnits="userSpaceOnUse">
<stop stop-color="#AA4343"/>
<stop offset="0.305825" stop-color="white" stop-opacity="0"/>
<stop offset="0.791262" stop-color="white" stop-opacity="0"/>
<stop offset="1" stop-color="#AA4343"/>
</linearGradient>
<linearGradient id="paint1_linear_53_590" x1="185.133" y1="143.758" x2="185.133" y2="407.552" gradientUnits="userSpaceOnUse">
<stop stop-color="#AA4343"/>
<stop offset="0.305825" stop-color="white" stop-opacity="0"/>
<stop offset="0.791262" stop-color="white" stop-opacity="0"/>
<stop offset="1" stop-color="#491E1E"/>
<stop offset="1" stop-color="#AA4343"/>
</linearGradient>
<linearGradient id="paint2_linear_53_590" x1="185.047" y1="170.816" x2="185.047" y2="379.853" gradientUnits="userSpaceOnUse">
<stop stop-color="#AA4343"/>
<stop offset="0.305825" stop-color="white" stop-opacity="0"/>
<stop offset="0.791262" stop-color="white" stop-opacity="0"/>
<stop offset="1" stop-color="#AA4343"/>
</linearGradient>
<linearGradient id="paint3_linear_53_590" x1="185.07" y1="200.615" x2="185.07" y2="350.907" gradientUnits="userSpaceOnUse">
<stop stop-color="white"/>
<stop offset="1" stop-color="white" stop-opacity="0"/>
</linearGradient>
<linearGradient id="paint4_linear_53_590" x1="185.07" y1="200.615" x2="185.07" y2="350.907" gradientUnits="userSpaceOnUse">
<stop stop-color="#491E1E"/>
<stop offset="1" stop-color="#AA4343"/>
</linearGradient>
<linearGradient id="paint5_linear_53_590" x1="176.142" y1="260.068" x2="201.806" y2="297.759" gradientUnits="userSpaceOnUse">
<stop stop-color="#AA4343"/>
<stop offset="1" stop-color="#491E1E"/>
</linearGradient>
<linearGradient id="paint6_linear_53_590" x1="194.26" y1="270.506" x2="197.751" y2="275.492" gradientUnits="userSpaceOnUse">
<stop stop-color="white"/>
<stop offset="1" stop-color="#FFEBED"/>
</linearGradient>
<linearGradient id="paint7_linear_53_590" x1="173.914" y1="274.407" x2="178.507" y2="278.402" gradientUnits="userSpaceOnUse">
<stop stop-color="white"/>
<stop offset="1" stop-color="#FFEBED"/>
</linearGradient>
<linearGradient id="paint8_linear_53_590" x1="193.505" y1="296.093" x2="190.003" y2="289.043" gradientUnits="userSpaceOnUse">
<stop stop-color="white"/>
<stop offset="1" stop-color="#FFEBED"/>
</linearGradient>
</defs>
</svg>
