<svg width="16" height="16" viewBox="0 0 16 16" fill="none" xmlns="http://www.w3.org/2000/svg">
<path fill-rule="evenodd" clip-rule="evenodd" d="M15.0846 0.22967C15.2625 0.369974 15.3664 0.584095 15.3664 0.810712V3.80149C15.3666 3.81199 15.3666 3.82247 15.3664 3.83291V12.0573C15.3664 13.2014 14.4388 14.129 13.2946 14.129H11.8518C10.7281 14.129 9.81709 13.218 9.81709 12.0943C9.81709 10.9705 10.7281 10.0595 11.8518 10.0595H13.8866V4.75212L6.11757 6.5915V13.5371C6.11757 14.6813 5.19001 15.6088 4.04583 15.6088H2.97297C1.84921 15.6088 0.938232 14.6978 0.938232 13.5741C0.938232 12.4503 1.84921 11.5393 2.97297 11.5393H4.63776V6.0214C4.63753 6.0109 4.63753 6.00044 4.63776 5.99V3.03043C4.63776 2.6883 4.87231 2.39079 5.20499 2.31095L14.4538 0.0912383C14.6742 0.0383518 14.9066 0.0893653 15.0846 0.22967ZM6.11757 5.07078L13.8866 3.2314V1.74921L6.11757 3.61377V5.07078ZM4.63776 13.0191H2.97297C2.66649 13.0191 2.41804 13.2676 2.41804 13.5741C2.41804 13.8806 2.66649 14.129 2.97297 14.129H4.04583C4.37273 14.129 4.63776 13.864 4.63776 13.5371V13.0191ZM13.8866 11.5393H11.8518C11.5453 11.5393 11.2969 11.7878 11.2969 12.0943C11.2969 12.4007 11.5453 12.6492 11.8518 12.6492H13.2946C13.6215 12.6492 13.8866 12.3842 13.8866 12.0573V11.5393Z" fill="#AA4343"/>
</svg>
