<svg width="200" height="200" viewBox="0 0 200 200" fill="none" xmlns="http://www.w3.org/2000/svg">
<rect width="200" height="200" fill="#A94343"/>
<path d="M98.3124 150.974L58.2362 111.263C56.5308 109.68 55.1909 107.852 53.9728 105.903C47.3949 95.0621 49.1003 81.1755 58.2362 72.1614C63.4741 66.9235 70.5392 64 77.9698 64C89.6638 64 96.9725 70.8215 100.018 74.7195C103.063 70.8215 110.372 64 122.066 64C129.496 64 136.561 66.9235 141.799 72.1614C150.813 81.1755 152.641 95.0621 146.063 105.903C144.845 107.852 143.505 109.68 141.799 111.263L101.723 150.974C100.749 151.948 99.2869 151.948 98.3124 150.974ZM77.9698 68.8725C71.7574 68.8725 66.0322 71.3087 61.6469 75.5722C54.2164 83.0027 52.7547 94.453 58.1144 103.345C59.0889 104.929 60.307 106.512 61.6469 107.852L100.018 145.858L138.389 107.852C139.729 106.512 140.947 105.051 141.921 103.345C147.281 94.3312 145.941 82.8809 138.389 75.5722C134.003 71.3087 128.156 68.8725 122.066 68.8725C113.295 68.8725 105.987 73.6232 102.089 80.201C101.114 81.7846 98.7997 81.7846 97.8252 80.201C94.049 73.6232 86.7403 68.8725 77.9698 68.8725Z" fill="white"/>
<path d="M78.9297 96.168C78.9297 96.0508 78.9414 95.8516 78.9648 95.5703C78.9648 95.2656 78.9648 94.9609 78.9648 94.6562C78.9648 94.3281 78.9766 94.0234 79 93.7422C79 93.4609 79 93.2734 79 93.1797C79.5859 92.5469 80.0664 92.1719 80.4414 92.0547C80.8398 91.9375 81.1562 92.0078 81.3906 92.2656C81.625 92.5 81.7891 92.8867 81.8828 93.4258C82 93.9648 82.082 94.5742 82.1289 95.2539C82.1758 95.9336 82.1992 96.6484 82.1992 97.3984C82.1992 98.1484 82.2109 98.8516 82.2344 99.5078C82.2578 100.141 82.3047 100.703 82.375 101.195C82.4453 101.688 82.5742 102.016 82.7617 102.18H94.8203C95.3125 102.18 95.6641 102.027 95.875 101.723C96.0859 101.418 96.2031 101.02 96.2266 100.527C96.2734 100.035 96.2617 99.4727 96.1914 98.8398C96.1211 98.207 96.0508 97.5625 95.9805 96.9062C95.9336 96.2266 95.9102 95.5703 95.9102 94.9375C95.9336 94.2812 96.0391 93.707 96.2266 93.2148C96.4375 92.7227 96.7539 92.3242 97.1758 92.0195C97.5977 91.7148 98.2188 91.5625 99.0391 91.5625C99.3438 92.0078 99.5312 92.5 99.6016 93.0391C99.6719 93.5547 99.6836 94.0938 99.6367 94.6562C99.6133 95.2188 99.5547 95.7812 99.4609 96.3438C99.3906 96.8828 99.3555 97.4102 99.3555 97.9258C99.3555 99.3086 99.4375 100.691 99.6016 102.074C99.7891 103.457 99.9766 104.84 100.164 106.223C100.375 107.605 100.562 108.988 100.727 110.371C100.914 111.73 101.008 113.078 101.008 114.414C101.055 115.867 100.961 116.91 100.727 117.543C100.492 118.152 100.199 118.422 99.8477 118.352C99.4961 118.305 99.0977 117.953 98.6523 117.297C98.2305 116.641 97.832 115.762 97.457 114.66C97.1055 113.559 96.8125 112.27 96.5781 110.793C96.3672 109.293 96.2852 107.676 96.332 105.941H83.6406C83.8047 107.559 84.0156 109.082 84.2734 110.512C84.5547 111.941 84.7656 113.207 84.9062 114.309C85.0703 115.387 85.1289 116.254 85.082 116.91C85.0586 117.543 84.8242 117.871 84.3789 117.895C83.6992 117.895 83.125 117.672 82.6562 117.227C82.1875 116.758 81.7773 116.125 81.4258 115.328C81.0977 114.531 80.8281 113.605 80.6172 112.551C80.4062 111.473 80.2305 110.348 80.0898 109.176C79.9492 107.98 79.832 106.762 79.7383 105.52C79.668 104.277 79.5977 103.082 79.5273 101.934C79.457 100.785 79.375 99.7188 79.2812 98.7344C79.1875 97.7266 79.0703 96.8711 78.9297 96.168ZM108.355 116.488C108.473 115.926 108.766 115.469 109.234 115.117C109.727 114.742 110.277 114.402 110.887 114.098C111.52 113.793 112.176 113.512 112.855 113.254C113.535 112.973 114.156 112.68 114.719 112.375C115.305 112.07 115.785 111.719 116.16 111.32C116.535 110.898 116.723 110.395 116.723 109.809C116.723 109.059 116.523 108.438 116.125 107.945C115.75 107.453 115.234 107.031 114.578 106.68C113.945 106.328 113.219 106.035 112.398 105.801C111.578 105.566 110.734 105.332 109.867 105.098C109.023 104.84 108.191 104.57 107.371 104.289C106.551 103.984 105.812 103.609 105.156 103.164C104.523 102.719 104.008 102.18 103.609 101.547C103.234 100.914 103.047 100.129 103.047 99.1914C103.047 98.418 103.199 97.6914 103.504 97.0117C103.832 96.3086 104.254 95.6523 104.77 95.043C105.309 94.4102 105.918 93.8359 106.598 93.3203C107.301 92.8047 108.027 92.3711 108.777 92.0195C109.551 91.668 110.324 91.3984 111.098 91.2109C111.871 91 112.586 90.8945 113.242 90.8945H113.629C113.84 90.9648 114.121 91.082 114.473 91.2461C114.824 91.4102 115.164 91.5742 115.492 91.7383C115.82 91.8789 116.102 92.0195 116.336 92.1602C116.57 92.2773 116.688 92.3477 116.688 92.3711V93.1797C116.242 93.2266 115.668 93.3203 114.965 93.4609C114.262 93.5781 113.523 93.7422 112.75 93.9531C111.977 94.1641 111.191 94.4336 110.395 94.7617C109.598 95.0664 108.883 95.4297 108.25 95.8516C107.617 96.2734 107.102 96.7656 106.703 97.3281C106.305 97.8672 106.105 98.4883 106.105 99.1914C106.105 100.199 106.457 100.996 107.16 101.582C107.863 102.145 108.742 102.613 109.797 102.988C110.852 103.363 112 103.703 113.242 104.008C114.508 104.289 115.668 104.641 116.723 105.062C117.777 105.461 118.656 106 119.359 106.68C120.062 107.336 120.414 108.227 120.414 109.352C120.414 109.961 120.227 110.605 119.852 111.285C119.5 111.941 119.02 112.598 118.41 113.254C117.824 113.887 117.156 114.496 116.406 115.082C115.656 115.668 114.883 116.184 114.086 116.629C113.312 117.051 112.551 117.402 111.801 117.684C111.051 117.941 110.383 118.07 109.797 118.07C109.609 118.07 109.41 118.047 109.199 118C108.988 117.953 108.801 117.883 108.637 117.789C108.496 117.672 108.379 117.508 108.285 117.297C108.215 117.086 108.238 116.816 108.355 116.488Z" fill="white"/>
</svg>
