<svg width="456" height="456" viewBox="0 0 456 456" fill="none" xmlns="http://www.w3.org/2000/svg">
<path d="M223.275 348.527L111.061 237.337C106.286 232.903 102.535 227.787 99.1238 222.33C80.7058 191.974 85.4808 153.091 111.061 127.852C125.728 113.186 145.51 105 166.315 105C199.059 105 219.523 124.1 228.05 135.015C236.577 124.1 257.041 105 289.784 105C310.59 105 330.372 113.186 345.038 127.852C370.278 153.091 375.394 191.974 356.976 222.33C353.565 227.787 349.813 232.903 345.038 237.337L232.825 348.527C230.096 351.256 226.003 351.256 223.275 348.527ZM166.315 118.643C148.921 118.643 132.89 125.464 120.611 137.402C99.8059 158.208 95.713 190.269 110.72 215.167C113.449 219.601 116.86 224.035 120.611 227.787L228.05 334.202L335.488 227.787C339.24 224.035 342.651 219.942 345.379 215.167C360.387 189.927 356.635 157.866 335.488 137.402C323.209 125.464 306.838 118.643 289.784 118.643C265.227 118.643 244.762 131.945 233.848 150.363C231.119 154.797 224.639 154.797 221.91 150.363C211.337 131.945 190.873 118.643 166.315 118.643Z" fill="white"/>
<path d="M170.812 199.781C170.812 199.469 170.844 198.938 170.906 198.188C170.906 197.375 170.906 196.562 170.906 195.75C170.906 194.875 170.938 194.062 171 193.312C171 192.562 171 192.062 171 191.812C172.562 190.125 173.844 189.125 174.844 188.812C175.906 188.5 176.75 188.688 177.375 189.375C178 190 178.438 191.031 178.688 192.469C179 193.906 179.219 195.531 179.344 197.344C179.469 199.156 179.531 201.062 179.531 203.062C179.531 205.062 179.562 206.938 179.625 208.688C179.688 210.375 179.812 211.875 180 213.188C180.188 214.5 180.531 215.375 181.031 215.812H213.188C214.5 215.812 215.438 215.406 216 214.594C216.562 213.781 216.875 212.719 216.938 211.406C217.062 210.094 217.031 208.594 216.844 206.906C216.656 205.219 216.469 203.5 216.281 201.75C216.156 199.938 216.094 198.188 216.094 196.5C216.156 194.75 216.438 193.219 216.938 191.906C217.5 190.594 218.344 189.531 219.469 188.719C220.594 187.906 222.25 187.5 224.438 187.5C225.25 188.688 225.75 190 225.938 191.438C226.125 192.812 226.156 194.25 226.031 195.75C225.969 197.25 225.812 198.75 225.562 200.25C225.375 201.688 225.281 203.094 225.281 204.469C225.281 208.156 225.5 211.844 225.938 215.531C226.438 219.219 226.938 222.906 227.438 226.594C228 230.281 228.5 233.969 228.938 237.656C229.438 241.281 229.688 244.875 229.688 248.438C229.812 252.312 229.562 255.094 228.938 256.781C228.312 258.406 227.531 259.125 226.594 258.938C225.656 258.812 224.594 257.875 223.406 256.125C222.281 254.375 221.219 252.031 220.219 249.094C219.281 246.156 218.5 242.719 217.875 238.781C217.312 234.781 217.094 230.469 217.219 225.844H183.375C183.812 230.156 184.375 234.219 185.062 238.031C185.812 241.844 186.375 245.219 186.75 248.156C187.188 251.031 187.344 253.344 187.219 255.094C187.156 256.781 186.531 257.656 185.344 257.719C183.531 257.719 182 257.125 180.75 255.938C179.5 254.688 178.406 253 177.469 250.875C176.594 248.75 175.875 246.281 175.312 243.469C174.75 240.594 174.281 237.594 173.906 234.469C173.531 231.281 173.219 228.031 172.969 224.719C172.781 221.406 172.594 218.219 172.406 215.156C172.219 212.094 172 209.25 171.75 206.625C171.5 203.938 171.188 201.656 170.812 199.781ZM249.281 253.969C249.594 252.469 250.375 251.25 251.625 250.312C252.938 249.312 254.406 248.406 256.031 247.594C257.719 246.781 259.469 246.031 261.281 245.344C263.094 244.594 264.75 243.812 266.25 243C267.812 242.188 269.094 241.25 270.094 240.188C271.094 239.062 271.594 237.719 271.594 236.156C271.594 234.156 271.062 232.5 270 231.188C269 229.875 267.625 228.75 265.875 227.812C264.188 226.875 262.25 226.094 260.062 225.469C257.875 224.844 255.625 224.219 253.312 223.594C251.062 222.906 248.844 222.188 246.656 221.438C244.469 220.625 242.5 219.625 240.75 218.438C239.062 217.25 237.688 215.812 236.625 214.125C235.625 212.438 235.125 210.344 235.125 207.844C235.125 205.781 235.531 203.844 236.344 202.031C237.219 200.156 238.344 198.406 239.719 196.781C241.156 195.094 242.781 193.562 244.594 192.188C246.469 190.812 248.406 189.656 250.406 188.719C252.469 187.781 254.531 187.062 256.594 186.562C258.656 186 260.562 185.719 262.312 185.719H263.344C263.906 185.906 264.656 186.219 265.594 186.656C266.531 187.094 267.438 187.531 268.312 187.969C269.188 188.344 269.938 188.719 270.562 189.094C271.188 189.406 271.5 189.594 271.5 189.656V191.812C270.312 191.938 268.781 192.188 266.906 192.562C265.031 192.875 263.062 193.312 261 193.875C258.938 194.438 256.844 195.156 254.719 196.031C252.594 196.844 250.688 197.812 249 198.938C247.312 200.062 245.938 201.375 244.875 202.875C243.812 204.312 243.281 205.969 243.281 207.844C243.281 210.531 244.219 212.656 246.094 214.219C247.969 215.719 250.312 216.969 253.125 217.969C255.938 218.969 259 219.875 262.312 220.688C265.688 221.438 268.781 222.375 271.594 223.5C274.406 224.562 276.75 226 278.625 227.812C280.5 229.562 281.438 231.938 281.438 234.938C281.438 236.562 280.938 238.281 279.938 240.094C279 241.844 277.719 243.594 276.094 245.344C274.531 247.031 272.75 248.656 270.75 250.219C268.75 251.781 266.688 253.156 264.562 254.344C262.5 255.469 260.469 256.406 258.469 257.156C256.469 257.844 254.688 258.188 253.125 258.188C252.625 258.188 252.094 258.125 251.531 258C250.969 257.875 250.469 257.688 250.031 257.438C249.656 257.125 249.344 256.688 249.094 256.125C248.906 255.562 248.969 254.844 249.281 253.969Z" fill="white"/>
</svg>
